# xmcd
#
# Track frame offsets: 
#        150
#        13357
#        24873
#        38233
#        50196
#        78313
#        111002
#        124095
#        134828
#        150784
#        164397
#        177728
#        195436
#        215078
#        230736
#        242655
#        256423
#        281829
#        298489
#        310925
#        327296
#
# Disc length: 4604 seconds
#
# Revision: 1
# Processed by: cddbd v1.5.2PL0 Copyright (c) Steve Scherf et al.
# Submitted via: ExactAudioCopy v0.99pb5
#
DISCID=4011fa15
DTITLE=Millésime - Blues Music - CD2 The blues side of the blues
DYEAR=2000
DGENRE=Blues
TTITLE0=Elmore James - Dust my broom
TTITLE1=John Lee Hooker - Boogie chillun
TTITLE2=B.B. King - Sweet little angel
TTITLE3=Muddy Waters - Baby please don't go
TTITLE4=Howlin' Wolf - Little red rooster
TTITLE5=Freddie King - The moon is rising
TTITLE6=Lightnin' Hopkins - Baby please don't go
TTITLE7=John Lee Hooker - Maudie
TTITLE8=Otis Span - I just want a little bit
TTITLE9=T. Bone Walker - Doin' time
TTITLE10=Elmore James - Standing at the crossroads
TTITLE11=Son House - Judgement day
TTITLE12=Muddy Waters - Long distance call
TTITLE13=Little Water - Blue mood
TTITLE14=Ruth Brown - R. B. Blues
TTITLE15=Big Maybelle - Rain down rain
TTITLE16=Big Mama Thornton - Little red rooster
TTITLE17=Howlin' Wolf - Shake it for me
TTITLE18=John Lee Hooker - I'm in the mood
TTITLE19=Muddy Waters - Manish boy
TTITLE20=John Lee Hooker - House rent boogie
EXTD=YEAR: 2000
EXTT0=
EXTT1=
EXTT2=
EXTT3=
EXTT4=
EXTT5=
EXTT6=
EXTT7=
EXTT8=
EXTT9=
EXTT10=
EXTT11=
EXTT12=
EXTT13=
EXTT14=
EXTT15=
EXTT16=
EXTT17=
EXTT18=
EXTT19=
EXTT20=
PLAYORDER=
